<svg width="33" height="33" viewBox="0 0 33 33" fill="none" xmlns="http://www.w3.org/2000/svg">
<g id="instagram">
<path id="bg" d="M32.4346 0.5H0.43457V32.5H32.4346V0.5Z" fill="#F00073"/>
<g id="instagram_2">
<path d="M16.4348 9.70001C18.6348 9.70001 18.9348 9.70001 19.8348 9.70001C20.6348 9.70001 21.0348 9.90001 21.3348 10C21.7348 10.2 22.0348 10.3 22.3348 10.6C22.6348 10.9 22.8348 11.2 22.9348 11.6C23.0348 11.9 23.1348 12.3 23.2348 13.1C23.2348 14 23.2348 14.2 23.2348 16.5C23.2348 18.8 23.2348 19 23.2348 19.9C23.2348 20.7 23.0348 21.1 22.9348 21.4C22.7348 21.8 22.6348 22.1 22.3348 22.4C22.0348 22.7 21.7348 22.9 21.3348 23C21.0348 23.1 20.6348 23.2 19.8348 23.3C18.9348 23.3 18.7348 23.3 16.4348 23.3C14.1348 23.3 13.9348 23.3 13.0348 23.3C12.2348 23.3 11.8348 23.1 11.5348 23C11.1348 22.8 10.8348 22.7 10.5348 22.4C10.2348 22.1 10.0348 21.8 9.93477 21.4C9.83477 21.1 9.73477 20.7 9.63477 19.9C9.63477 19 9.63477 18.8 9.63477 16.5C9.63477 14.2 9.63477 14 9.63477 13.1C9.63477 12.3 9.83477 11.9 9.93477 11.6C10.1348 11.2 10.2348 10.9 10.5348 10.6C10.8348 10.3 11.1348 10.1 11.5348 10C11.8348 9.90001 12.2348 9.80001 13.0348 9.70001C13.9348 9.70001 14.2348 9.70001 16.4348 9.70001ZM16.4348 8.20001C14.1348 8.20001 13.9348 8.20001 13.0348 8.20001C12.1348 8.20001 11.5348 8.40001 11.0348 8.60001C10.5348 8.80001 10.0348 9.10001 9.53477 9.60001C9.03477 10.1 8.83477 10.5 8.53477 11.1C8.33477 11.6 8.23477 12.2 8.13477 13.1C8.13477 14 8.13477 14.3 8.13477 16.5C8.13477 18.8 8.13477 19 8.13477 19.9C8.13477 20.8 8.33477 21.4 8.53477 21.9C8.73477 22.4 9.03477 22.9 9.53477 23.4C10.0348 23.9 10.4348 24.1 11.0348 24.4C11.5348 24.6 12.1348 24.7 13.0348 24.8C13.9348 24.8 14.2348 24.8 16.4348 24.8C18.6348 24.8 18.9348 24.8 19.8348 24.8C20.7348 24.8 21.3348 24.6 21.8348 24.4C22.3348 24.2 22.8348 23.9 23.3348 23.4C23.8348 22.9 24.0348 22.5 24.3348 21.9C24.5348 21.4 24.6348 20.8 24.7348 19.9C24.7348 19 24.7348 18.7 24.7348 16.5C24.7348 14.3 24.7348 14 24.7348 13.1C24.7348 12.2 24.5348 11.6 24.3348 11.1C24.1348 10.6 23.8348 10.1 23.3348 9.60001C22.8348 9.10001 22.4348 8.90001 21.8348 8.60001C21.3348 8.40001 20.7348 8.30001 19.8348 8.20001C18.9348 8.20001 18.7348 8.20001 16.4348 8.20001Z" fill="white"/>
<path d="M16.4348 12.2C14.0348 12.2 12.1348 14.1 12.1348 16.5C12.1348 18.9 14.0348 20.8 16.4348 20.8C18.8348 20.8 20.7348 18.9 20.7348 16.5C20.7348 14.1 18.8348 12.2 16.4348 12.2ZM16.4348 19.3C14.9348 19.3 13.6348 18.1 13.6348 16.5C13.6348 15 14.8348 13.7 16.4348 13.7C17.9348 13.7 19.2348 14.9 19.2348 16.5C19.2348 18 17.9348 19.3 16.4348 19.3Z" fill="white"/>
<path d="M20.8348 13.1C21.3871 13.1 21.8348 12.6523 21.8348 12.1C21.8348 11.5477 21.3871 11.1 20.8348 11.1C20.2825 11.1 19.8348 11.5477 19.8348 12.1C19.8348 12.6523 20.2825 13.1 20.8348 13.1Z" fill="white"/>
</g>
</g>
</svg>
