<svg width="33" height="33" viewBox="0 0 33 33" fill="none" xmlns="http://www.w3.org/2000/svg">
<g id="telegram">
<path id="bg" d="M32.4346 0.5H0.43457V32.5H32.4346V0.5Z" fill="#0088CC"/>
<path id="telegram_2" d="M8.53449 16.2083C12.8294 14.3371 15.6934 13.1034 17.1264 12.5074C21.2179 10.8056 22.0681 10.51 22.6222 10.5001C22.7441 10.4981 23.0166 10.5283 23.1931 10.6715C23.3422 10.7924 23.3832 10.9558 23.4028 11.0705C23.4224 11.1851 23.4469 11.4464 23.4275 11.6505C23.2057 13.9801 22.2464 19.6335 21.7583 22.2427C21.5518 23.3468 21.1451 23.717 20.7514 23.7532C19.8958 23.8319 19.2462 23.1878 18.4175 22.6446C17.1208 21.7946 16.3883 21.2654 15.1296 20.436C13.675 19.4774 14.618 18.9506 15.4469 18.0896C15.6639 17.8643 19.4335 14.4355 19.5065 14.1244C19.5156 14.0855 19.5241 13.9405 19.4379 13.8639C19.3518 13.7874 19.2247 13.8136 19.1329 13.8344C19.0029 13.8639 16.9314 15.2331 12.9185 17.9419C12.3305 18.3457 11.7979 18.5424 11.3207 18.5321C10.7947 18.5207 9.78279 18.2346 9.03055 17.9901C8.1079 17.6902 7.37459 17.5316 7.43845 17.0223C7.47171 16.757 7.83705 16.4856 8.53449 16.2083Z" fill="white"/>
</g>
</svg>
