<svg width="33" height="33" viewBox="0 0 33 33" fill="none" xmlns="http://www.w3.org/2000/svg">
<path d="M32.4346 0.5H0.43457V32.5H32.4346V0.5Z" fill="#1DA1F2"/>
<path d="M24.4346 11.5C23.8346 11.8 23.2346 11.9 22.5346 12C23.2346 11.6 23.7346 11 23.9346 10.2C23.3346 10.6 22.6346 10.8 21.8346 11C21.2346 10.4 20.3346 10 19.4346 10C17.3346 10 15.7346 12 16.2346 14C13.5346 13.9 11.1346 12.6 9.43457 10.6C8.53457 12.1 9.03457 14 10.4346 15C9.93457 15 9.43457 14.8 8.93457 14.6C8.93457 16.1 10.0346 17.5 11.5346 17.9C11.0346 18 10.5346 18.1 10.0346 18C10.4346 19.3 11.6346 20.3 13.1346 20.3C11.9346 21.2 10.1346 21.7 8.43457 21.5C9.93457 22.4 11.6346 23 13.4346 23C19.5346 23 22.9346 17.9 22.7346 13.2C23.4346 12.8 24.0346 12.2 24.4346 11.5Z" fill="white"/>
</svg>
